# xmcd
#
# Track frame offsets: 
#        150
#        20642
#        40145
#
# Disc length: 750 seconds
#
# Revision: 3
# Processed by: cddbd v1.5.2PL0 Copyright (c) Steve Scherf et al.
# Submitted via: ExactAudioCopy v0.99pb4
#
DISCID=1d02ec03
DTITLE=Amanda Marshall - Let It Rain
DYEAR=1996
DGENRE=Rock
TTITLE0=Let It Rain
TTITLE1=Sitting On Top Of The World
TTITLE2=Don't Let It Bring You Down
EXTD=
EXTT0=
EXTT1=
EXTT2=
PLAYORDER=
